<mxfile host="app.diagrams.net" agent="Mozilla/5.0 (Windows NT 10.0; Win64; x64) AppleWebKit/537.36 (KHTML, like Gecko) Chrome/128.0.0.0 Safari/537.36" version="24.7.14">
  <diagram name="Page-1" id="FdvQL-wQut5t2aWL9FqW">
    <mxGraphModel dx="880" dy="434" grid="1" gridSize="10" guides="1" tooltips="1" connect="1" arrows="1" fold="1" page="1" pageScale="1" pageWidth="827" pageHeight="1169" math="0" shadow="0">
      <root>
        <mxCell id="0" />
        <mxCell id="1" parent="0" />
        <mxCell id="-j4mKeUH3uTOLnQa7xFd-3" style="edgeStyle=orthogonalEdgeStyle;rounded=0;orthogonalLoop=1;jettySize=auto;html=1;entryX=0.5;entryY=0;entryDx=0;entryDy=0;" edge="1" parent="1" source="-j4mKeUH3uTOLnQa7xFd-1" target="-j4mKeUH3uTOLnQa7xFd-2">
          <mxGeometry relative="1" as="geometry" />
        </mxCell>
        <mxCell id="-j4mKeUH3uTOLnQa7xFd-1" value="&lt;b&gt;&lt;font style=&quot;font-size: 14px;&quot;&gt;terraform-multi-env&lt;/font&gt;&lt;/b&gt;" style="rounded=1;whiteSpace=wrap;html=1;fillColor=#dae8fc;strokeColor=#6c8ebf;" vertex="1" parent="1">
          <mxGeometry x="320" y="240" width="160" height="40" as="geometry" />
        </mxCell>
        <mxCell id="-j4mKeUH3uTOLnQa7xFd-6" style="edgeStyle=orthogonalEdgeStyle;rounded=0;orthogonalLoop=1;jettySize=auto;html=1;exitX=0.5;exitY=1;exitDx=0;exitDy=0;entryX=0.5;entryY=0;entryDx=0;entryDy=0;" edge="1" parent="1" source="-j4mKeUH3uTOLnQa7xFd-2" target="-j4mKeUH3uTOLnQa7xFd-5">
          <mxGeometry relative="1" as="geometry" />
        </mxCell>
        <mxCell id="-j4mKeUH3uTOLnQa7xFd-7" style="edgeStyle=orthogonalEdgeStyle;rounded=0;orthogonalLoop=1;jettySize=auto;html=1;entryX=0.5;entryY=0;entryDx=0;entryDy=0;" edge="1" parent="1" source="-j4mKeUH3uTOLnQa7xFd-2" target="-j4mKeUH3uTOLnQa7xFd-4">
          <mxGeometry relative="1" as="geometry">
            <Array as="points">
              <mxPoint x="400" y="400" />
              <mxPoint x="200" y="400" />
            </Array>
          </mxGeometry>
        </mxCell>
        <mxCell id="-j4mKeUH3uTOLnQa7xFd-8" style="edgeStyle=orthogonalEdgeStyle;rounded=0;orthogonalLoop=1;jettySize=auto;html=1;" edge="1" parent="1" source="-j4mKeUH3uTOLnQa7xFd-2">
          <mxGeometry relative="1" as="geometry">
            <mxPoint x="640" y="440" as="targetPoint" />
            <Array as="points">
              <mxPoint x="400" y="400" />
              <mxPoint x="641" y="400" />
            </Array>
          </mxGeometry>
        </mxCell>
        <mxCell id="-j4mKeUH3uTOLnQa7xFd-2" value="&lt;b&gt;&lt;font style=&quot;font-size: 14px;&quot;&gt;tfvars&lt;/font&gt;&lt;/b&gt;" style="rounded=1;whiteSpace=wrap;html=1;fillColor=#f8cecc;strokeColor=#b85450;" vertex="1" parent="1">
          <mxGeometry x="320" y="320" width="160" height="40" as="geometry" />
        </mxCell>
        <mxCell id="-j4mKeUH3uTOLnQa7xFd-23" value="" style="edgeStyle=orthogonalEdgeStyle;rounded=0;orthogonalLoop=1;jettySize=auto;html=1;" edge="1" parent="1" source="-j4mKeUH3uTOLnQa7xFd-4" target="-j4mKeUH3uTOLnQa7xFd-21">
          <mxGeometry relative="1" as="geometry" />
        </mxCell>
        <mxCell id="-j4mKeUH3uTOLnQa7xFd-4" value="&lt;span style=&quot;font-size: 14px;&quot;&gt;&lt;b&gt;dev&lt;/b&gt;&lt;/span&gt;" style="rounded=1;whiteSpace=wrap;html=1;fillColor=#ffe6cc;strokeColor=#d79b00;" vertex="1" parent="1">
          <mxGeometry x="120" y="440" width="160" height="40" as="geometry" />
        </mxCell>
        <mxCell id="-j4mKeUH3uTOLnQa7xFd-22" value="" style="edgeStyle=orthogonalEdgeStyle;rounded=0;orthogonalLoop=1;jettySize=auto;html=1;" edge="1" parent="1" source="-j4mKeUH3uTOLnQa7xFd-5" target="-j4mKeUH3uTOLnQa7xFd-19">
          <mxGeometry relative="1" as="geometry" />
        </mxCell>
        <mxCell id="-j4mKeUH3uTOLnQa7xFd-5" value="&lt;b&gt;&lt;font style=&quot;font-size: 14px;&quot;&gt;prod&lt;/font&gt;&lt;/b&gt;" style="rounded=1;whiteSpace=wrap;html=1;fillColor=#d5e8d4;strokeColor=#82b366;" vertex="1" parent="1">
          <mxGeometry x="320" y="440" width="160" height="40" as="geometry" />
        </mxCell>
        <mxCell id="-j4mKeUH3uTOLnQa7xFd-13" value="&lt;div style=&quot;text-align: left;&quot;&gt;&lt;b style=&quot;background-color: initial; text-wrap: nowrap;&quot;&gt;&lt;font style=&quot;font-size: 14px;&quot;&gt;provider.tf&lt;/font&gt;&lt;/b&gt;&lt;/div&gt;&lt;div style=&quot;text-align: left;&quot;&gt;&lt;b style=&quot;text-wrap: nowrap;&quot;&gt;&lt;font style=&quot;font-size: 14px;&quot;&gt;variables.tf&lt;/font&gt;&lt;/b&gt;&lt;b style=&quot;text-wrap: nowrap;&quot;&gt;&lt;font style=&quot;font-size: 14px;&quot;&gt;&lt;br&gt;&lt;/font&gt;&lt;/b&gt;&lt;/div&gt;&lt;div style=&quot;text-align: left;&quot;&gt;&lt;b style=&quot;text-wrap: nowrap;&quot;&gt;&lt;font style=&quot;font-size: 14px;&quot;&gt;ec2.tf&lt;/font&gt;&lt;/b&gt;&lt;b style=&quot;text-wrap: nowrap;&quot;&gt;&lt;font style=&quot;font-size: 14px;&quot;&gt;&lt;br&gt;&lt;/font&gt;&lt;/b&gt;&lt;/div&gt;&lt;div style=&quot;text-align: left;&quot;&gt;&lt;b style=&quot;text-wrap: nowrap;&quot;&gt;&lt;font style=&quot;font-size: 14px;&quot;&gt;r53.tf&lt;/font&gt;&lt;/b&gt;&lt;b style=&quot;text-wrap: nowrap;&quot;&gt;&lt;font style=&quot;font-size: 14px;&quot;&gt;&lt;br&gt;&lt;/font&gt;&lt;/b&gt;&lt;/div&gt;" style="whiteSpace=wrap;html=1;fillColor=#e1d5e7;strokeColor=#9673a6;" vertex="1" parent="1">
          <mxGeometry x="580" y="440" width="120" height="80" as="geometry" />
        </mxCell>
        <mxCell id="-j4mKeUH3uTOLnQa7xFd-14" value="&lt;b&gt;&lt;font style=&quot;font-size: 13px;&quot;&gt;Parent Repository&lt;/font&gt;&lt;/b&gt;" style="text;html=1;align=center;verticalAlign=middle;resizable=0;points=[];autosize=1;strokeColor=none;fillColor=none;" vertex="1" parent="1">
          <mxGeometry x="330" y="210" width="140" height="30" as="geometry" />
        </mxCell>
        <mxCell id="-j4mKeUH3uTOLnQa7xFd-15" value="&lt;b&gt;&lt;font style=&quot;font-size: 13px;&quot;&gt;child repository&lt;/font&gt;&lt;/b&gt;" style="text;html=1;align=center;verticalAlign=middle;resizable=0;points=[];autosize=1;strokeColor=none;fillColor=none;" vertex="1" parent="1">
          <mxGeometry x="390" y="280" width="120" height="30" as="geometry" />
        </mxCell>
        <mxCell id="-j4mKeUH3uTOLnQa7xFd-16" value="&lt;b&gt;&lt;font style=&quot;font-size: 13px;&quot;&gt;child repository&lt;/font&gt;&lt;/b&gt;" style="text;html=1;align=center;verticalAlign=middle;resizable=0;points=[];autosize=1;strokeColor=none;fillColor=none;" vertex="1" parent="1">
          <mxGeometry x="200" y="400" width="120" height="30" as="geometry" />
        </mxCell>
        <mxCell id="-j4mKeUH3uTOLnQa7xFd-17" value="&lt;b&gt;&lt;font style=&quot;font-size: 13px;&quot;&gt;child repository&lt;/font&gt;&lt;/b&gt;" style="text;html=1;align=center;verticalAlign=middle;resizable=0;points=[];autosize=1;strokeColor=none;fillColor=none;" vertex="1" parent="1">
          <mxGeometry x="400" y="400" width="120" height="30" as="geometry" />
        </mxCell>
        <mxCell id="-j4mKeUH3uTOLnQa7xFd-18" value="&lt;b&gt;&lt;font style=&quot;font-size: 13px;&quot;&gt;.tf files in&amp;nbsp;&lt;/font&gt;&lt;/b&gt;&lt;div&gt;&lt;b&gt;&lt;font style=&quot;font-size: 13px;&quot;&gt;tfvars directory&lt;/font&gt;&lt;/b&gt;&lt;/div&gt;" style="text;html=1;align=center;verticalAlign=middle;resizable=0;points=[];autosize=1;strokeColor=none;fillColor=none;" vertex="1" parent="1">
          <mxGeometry x="640" y="395" width="120" height="40" as="geometry" />
        </mxCell>
        <mxCell id="-j4mKeUH3uTOLnQa7xFd-19" value="&lt;div style=&quot;text-align: left;&quot;&gt;&lt;span style=&quot;font-size: 14px; text-wrap: nowrap;&quot;&gt;&lt;b&gt;backend.tf&lt;/b&gt;&lt;/span&gt;&lt;/div&gt;&lt;div style=&quot;text-align: left;&quot;&gt;&lt;span style=&quot;font-size: 14px; text-wrap: nowrap;&quot;&gt;&lt;b&gt;prod.tfvars&lt;/b&gt;&lt;/span&gt;&lt;/div&gt;" style="whiteSpace=wrap;html=1;fillColor=#e1d5e7;strokeColor=#9673a6;" vertex="1" parent="1">
          <mxGeometry x="350" y="520" width="100" height="40" as="geometry" />
        </mxCell>
        <mxCell id="-j4mKeUH3uTOLnQa7xFd-21" value="&lt;div style=&quot;text-align: left;&quot;&gt;&lt;span style=&quot;font-size: 14px; text-wrap: nowrap;&quot;&gt;&lt;b&gt;backend.tf&lt;/b&gt;&lt;/span&gt;&lt;/div&gt;&lt;div style=&quot;text-align: left;&quot;&gt;&lt;span style=&quot;font-size: 14px; text-wrap: nowrap;&quot;&gt;&lt;b&gt;dev.tfvars&lt;/b&gt;&lt;/span&gt;&lt;/div&gt;" style="whiteSpace=wrap;html=1;fillColor=#e1d5e7;strokeColor=#9673a6;" vertex="1" parent="1">
          <mxGeometry x="150" y="520" width="100" height="40" as="geometry" />
        </mxCell>
        <mxCell id="-j4mKeUH3uTOLnQa7xFd-24" value="&lt;b&gt;&lt;font style=&quot;font-size: 13px;&quot;&gt;.tf files in&amp;nbsp;&lt;/font&gt;&lt;/b&gt;&lt;div&gt;&lt;span style=&quot;font-size: 13px;&quot;&gt;&lt;b&gt;prod directory&lt;/b&gt;&lt;/span&gt;&lt;/div&gt;" style="text;html=1;align=center;verticalAlign=middle;resizable=0;points=[];autosize=1;strokeColor=none;fillColor=none;" vertex="1" parent="1">
          <mxGeometry x="400" y="480" width="110" height="40" as="geometry" />
        </mxCell>
        <mxCell id="-j4mKeUH3uTOLnQa7xFd-25" value="&lt;b&gt;&lt;font style=&quot;font-size: 13px;&quot;&gt;.tf files in&amp;nbsp;&lt;/font&gt;&lt;/b&gt;&lt;div&gt;&lt;span style=&quot;font-size: 13px;&quot;&gt;&lt;b&gt;dev directory&lt;/b&gt;&lt;/span&gt;&lt;/div&gt;" style="text;html=1;align=center;verticalAlign=middle;resizable=0;points=[];autosize=1;strokeColor=none;fillColor=none;" vertex="1" parent="1">
          <mxGeometry x="200" y="480" width="110" height="40" as="geometry" />
        </mxCell>
      </root>
    </mxGraphModel>
  </diagram>
</mxfile>
